<svg width="10" height="11" viewBox="0 0 10 11" fill="none" xmlns="http://www.w3.org/2000/svg">
<path d="M9.54609 9.02029L9.54609 1.94916C9.54321 1.81753 9.51438 1.68777 9.46123 1.56732C9.3598 1.32444 9.16671 1.13134 8.92383 1.02991C8.80337 0.976768 8.67361 0.947932 8.54199 0.945059L1.47085 0.94506C1.33899 0.94506 1.20842 0.971032 1.0866 1.02149C0.964777 1.07195 0.854085 1.14591 0.760846 1.23915C0.57254 1.42746 0.466751 1.68286 0.466751 1.94916C0.466751 2.21546 0.572541 2.47086 0.760846 2.65917C0.949152 2.84747 1.20455 2.95326 1.47085 2.95326L6.13073 2.94619L0.763739 8.31318C0.576201 8.50072 0.470843 8.75508 0.470843 9.02029C0.470843 9.28551 0.576201 9.53987 0.763739 9.72741C0.951277 9.91494 1.20563 10.0203 1.47085 10.0203C1.73607 10.0203 1.99043 9.91494 2.17797 9.72741L7.54496 4.36042L7.53788 9.02029C7.53734 9.15231 7.56294 9.28312 7.61321 9.40518C7.66348 9.52725 7.73742 9.63816 7.83077 9.73151C7.92412 9.82485 8.03503 9.89879 8.15709 9.94906C8.27916 9.99933 8.40997 10.0249 8.54198 10.0244C8.674 10.0249 8.80481 9.99933 8.92688 9.94906C9.04894 9.8988 9.15985 9.82485 9.2532 9.73151C9.34655 9.63816 9.42049 9.52725 9.47076 9.40519C9.52103 9.28312 9.54663 9.1523 9.54609 9.02029Z" fill="white"/>
</svg>
