<svg width="14" height="20" viewBox="0 0 14 20" fill="none" xmlns="http://www.w3.org/2000/svg">
<path d="M1.555 1.30521C1.81045 1.04988 2.1137 0.84737 2.44743 0.709247C2.78115 0.571124 3.13882 0.500094 3.5 0.500214H6.25V6.00021H3.5C2.95597 6.00039 2.42411 5.83921 1.9717 5.53705C1.5193 5.23488 1.16668 4.80533 0.958468 4.30272C0.750252 3.80011 0.695791 3.24703 0.801976 2.71346C0.908161 2.1799 1.17022 1.68981 1.555 1.30521ZM10.5 6.00021H7.75V0.500214H10.5C11.2293 0.500214 11.9288 0.789945 12.4445 1.30567C12.9603 1.8214 13.25 2.52087 13.25 3.25021C13.25 3.97956 12.9603 4.67903 12.4445 5.19476C11.9288 5.71048 11.2293 6.00021 10.5 6.00021ZM10.5 7.50021C9.77065 7.50021 9.07118 7.78994 8.55545 8.30567C8.03973 8.82139 7.75 9.52087 7.75 10.2502C7.75 10.9796 8.03973 11.679 8.55545 12.1948C9.07118 12.7105 9.77065 13.0002 10.5 13.0002C11.2293 13.0002 11.9288 12.7105 12.4445 12.1948C12.9603 11.679 13.25 10.9796 13.25 10.2502C13.25 9.52087 12.9603 8.82139 12.4445 8.30567C11.9288 7.78994 11.2293 7.50021 10.5 7.50021ZM1.555 15.3062C1.81037 15.0507 2.11358 14.848 2.44731 14.7097C2.78104 14.5714 3.13875 14.5002 3.5 14.5002H6.25V17.2502C6.24985 17.7024 6.1382 18.1475 5.92494 18.5463C5.71169 18.945 5.4034 19.285 5.02738 19.5361C4.65136 19.7873 4.21922 19.9418 3.76922 19.9861C3.31922 20.0304 2.86524 19.963 2.4475 19.7899C2.02975 19.6169 1.66112 19.3435 1.37426 18.9939C1.08739 18.6444 0.891145 18.2295 0.802889 17.7861C0.714633 17.3426 0.737094 16.8842 0.868282 16.4514C0.99947 16.0187 1.23534 15.626 1.555 15.3062ZM3.5 7.50021C2.77065 7.50021 2.07118 7.78994 1.55545 8.30567C1.03973 8.82139 0.749999 9.52087 0.749999 10.2502C0.749999 10.9796 1.03973 11.679 1.55545 12.1948C2.07118 12.7105 2.77065 13.0002 3.5 13.0002H6.25V7.50021H3.5Z" fill="white" fill-opacity="0.8"/>
</svg>
