<svg width="25" height="25" viewBox="0 0 25 25" fill="none" xmlns="http://www.w3.org/2000/svg">
<path fill-rule="evenodd" clip-rule="evenodd" d="M20.25 0.875C21.2777 0.875 22.2633 1.28326 22.99 2.00996C23.7167 2.73666 24.125 3.72229 24.125 4.75V20.25C24.125 21.2777 23.7167 22.2633 22.99 22.99C22.2633 23.7167 21.2777 24.125 20.25 24.125H4.75C3.72229 24.125 2.73666 23.7167 2.00996 22.99C1.28326 22.2633 0.875 21.2777 0.875 20.25V4.75C0.875 3.72229 1.28326 2.73666 2.00996 2.00996C2.73666 1.28326 3.72229 0.875 4.75 0.875H20.25ZM7.33333 9.91667C6.99076 9.91667 6.66222 10.0528 6.41999 10.295C6.17775 10.5372 6.04167 10.8658 6.04167 11.2083V17.6667C6.04167 18.0092 6.17775 18.3378 6.41999 18.58C6.66222 18.8222 6.99076 18.9583 7.33333 18.9583C7.6759 18.9583 8.00444 18.8222 8.24668 18.58C8.48891 18.3378 8.625 18.0092 8.625 17.6667V11.2083C8.625 10.8658 8.48891 10.5372 8.24668 10.295C8.00444 10.0528 7.6759 9.91667 7.33333 9.91667ZM11.2083 8.625C10.8658 8.625 10.5372 8.76109 10.295 9.00332C10.0528 9.24555 9.91667 9.57409 9.91667 9.91667V17.6667C9.91667 18.0092 10.0528 18.3378 10.295 18.58C10.5372 18.8222 10.8658 18.9583 11.2083 18.9583C11.5509 18.9583 11.8794 18.8222 12.1217 18.58C12.3639 18.3378 12.5 18.0092 12.5 17.6667V12.9392C12.894 12.4948 13.5592 11.973 14.2993 11.6565C14.7294 11.4731 15.3765 11.3982 15.826 11.5403C15.9752 11.5781 16.108 11.6633 16.2045 11.7831C16.2717 11.8735 16.375 12.075 16.375 12.5V17.6667C16.375 18.0092 16.5111 18.3378 16.7533 18.58C16.9956 18.8222 17.3241 18.9583 17.6667 18.9583C18.0092 18.9583 18.3378 18.8222 18.58 18.58C18.8222 18.3378 18.9583 18.0092 18.9583 17.6667V12.5C18.9583 11.6346 18.7387 10.8647 18.2815 10.2473C17.8607 9.68747 17.2719 9.27694 16.601 9.07579C15.436 8.71025 14.1456 8.91304 13.284 9.28246C13.0082 9.40109 12.7395 9.53565 12.4793 9.68546C12.4252 9.38784 12.2683 9.11867 12.036 8.92488C11.8038 8.73108 11.5108 8.62495 11.2083 8.625ZM7.33333 6.04167C6.99076 6.04167 6.66222 6.17775 6.41999 6.41999C6.17775 6.66222 6.04167 6.99076 6.04167 7.33333C6.04167 7.6759 6.17775 8.00444 6.41999 8.24668C6.66222 8.48891 6.99076 8.625 7.33333 8.625C7.6759 8.625 8.00444 8.48891 8.24668 8.24668C8.48891 8.00444 8.625 7.6759 8.625 7.33333C8.625 6.99076 8.48891 6.66222 8.24668 6.41999C8.00444 6.17775 7.6759 6.04167 7.33333 6.04167Z" fill="white"/>
</svg>
