<svg width="27" height="27" viewBox="0 0 27 27" fill="none" xmlns="http://www.w3.org/2000/svg">
<path d="M14.8278 0.583496C16.281 0.587371 17.0185 0.595121 17.6553 0.613204L17.9059 0.622246C18.1952 0.632579 18.4807 0.645496 18.8256 0.660996C20.1999 0.725579 21.1376 0.94258 21.9604 1.26162C22.8129 1.5897 23.5311 2.03404 24.2493 2.75091C24.9063 3.3964 25.4146 4.17752 25.7386 5.03975C26.0576 5.86254 26.2746 6.80029 26.3392 8.17591C26.3547 8.5195 26.3676 8.80496 26.3779 9.09558L26.3857 9.34616C26.4051 9.98166 26.4128 10.7192 26.4154 12.1723L26.4167 13.1359V14.828C26.4198 15.7701 26.4099 16.7123 26.387 17.6542L26.3792 17.9047C26.3689 18.1954 26.356 18.4808 26.3405 18.8244C26.2759 20.2 26.0563 21.1365 25.7386 21.9606C25.4146 22.8228 24.9063 23.6039 24.2493 24.2494C23.6038 24.9065 22.8227 25.4147 21.9604 25.7387C21.1376 26.0577 20.1999 26.2747 18.8256 26.3393L17.9059 26.3781L17.6553 26.3858C17.0185 26.4039 16.281 26.413 14.8278 26.4155L13.8643 26.4168H12.1735C11.2309 26.4202 10.2883 26.4102 9.34601 26.3871L9.09543 26.3794C8.7888 26.3678 8.48224 26.3544 8.17576 26.3393C6.80143 26.2747 5.86368 26.0577 5.0396 25.7387C4.17783 25.4146 3.39717 24.9063 2.75205 24.2494C2.09452 23.6041 1.58582 22.8229 1.26147 21.9606C0.942429 21.1378 0.725429 20.2 0.660846 18.8244L0.622096 17.9047L0.615638 17.6542C0.591827 16.7123 0.581062 15.7702 0.583346 14.828V12.1723C0.579771 11.2302 0.589244 10.288 0.611763 9.34616L0.620804 9.09558C0.631138 8.80496 0.644054 8.5195 0.659554 8.17591C0.724137 6.80029 0.941137 5.86383 1.26018 5.03975C1.58528 4.17717 2.09488 3.39602 2.75335 2.75091C3.39809 2.09416 4.1783 1.58592 5.0396 1.26162C5.86368 0.94258 6.80014 0.725579 8.17576 0.660996C8.51935 0.645496 8.8061 0.632579 9.09543 0.622246L9.34601 0.614496C10.2879 0.591547 11.23 0.581643 12.1722 0.584788L14.8278 0.583496ZM13.5 7.04183C11.7872 7.04183 10.1445 7.72226 8.93328 8.93343C7.72211 10.1446 7.04168 11.7873 7.04168 13.5002C7.04168 15.213 7.72211 16.8557 8.93328 18.0669C10.1445 19.2781 11.7872 19.9585 13.5 19.9585C15.2129 19.9585 16.8556 19.2781 18.0667 18.0669C19.2779 16.8557 19.9583 15.213 19.9583 13.5002C19.9583 11.7873 19.2779 10.1446 18.0667 8.93343C16.8556 7.72226 15.2129 7.04183 13.5 7.04183ZM13.5 9.62516C14.0089 9.62508 14.5128 9.72522 14.983 9.91988C15.4531 10.1145 15.8804 10.3999 16.2402 10.7597C16.6001 11.1194 16.8856 11.5466 17.0804 12.0167C17.2753 12.4868 17.3756 12.9906 17.3757 13.4995C17.3757 14.0084 17.2756 14.5123 17.0809 14.9825C16.8863 15.4526 16.6009 15.8799 16.2412 16.2397C15.8814 16.5996 15.4543 16.8851 14.9842 17.08C14.514 17.2748 14.0102 17.3751 13.5013 17.3752C12.4736 17.3752 11.488 16.9669 10.7613 16.2402C10.0346 15.5135 9.6263 14.5279 9.6263 13.5002C9.6263 12.4724 10.0346 11.4868 10.7613 10.7601C11.488 10.0334 12.4736 9.62516 13.5013 9.62516M20.2826 5.10433C19.8543 5.10433 19.4437 5.27444 19.1409 5.57723C18.8381 5.88002 18.668 6.2907 18.668 6.71891C18.668 7.14713 18.8381 7.5578 19.1409 7.8606C19.4437 8.16339 19.8543 8.3335 20.2826 8.3335C20.7108 8.3335 21.1214 8.16339 21.4242 7.8606C21.727 7.5578 21.8971 7.14713 21.8971 6.71891C21.8971 6.2907 21.727 5.88002 21.4242 5.57723C21.1214 5.27444 20.7108 5.10433 20.2826 5.10433Z" fill="white"/>
</svg>
