<svg width="24" height="24" viewBox="0 0 24 24" fill="none" xmlns="http://www.w3.org/2000/svg">
<path fill-rule="evenodd" clip-rule="evenodd" d="M12 0.333557C5.567 0.333557 0.333332 5.56722 0.333332 12.0002C0.333332 18.4332 5.567 23.6669 12 23.6669C18.433 23.6669 23.6667 18.4332 23.6667 12.0002C23.6667 5.56722 18.433 0.333557 12 0.333557ZM12 23.1326C5.86217 23.1326 0.868832 18.1381 0.868832 12.0002C0.868832 5.86239 5.86217 0.86789 12 0.86789C18.1378 0.86789 23.1323 5.86122 23.1323 12.0002C23.1323 18.1369 18.139 23.1326 12 23.1326ZM1.99233 12.0002C1.99223 13.8796 2.52124 15.7211 3.51881 17.3139C4.51639 18.9068 5.94223 20.1866 7.63317 21.0069L2.858 7.92856C2.28631 9.2098 1.99133 10.5972 1.99233 12.0002ZM18.7573 11.4962C18.7573 10.2596 18.3117 9.40322 17.9313 8.73589C17.4238 7.91106 16.9478 7.21339 16.9478 6.38856C16.9478 5.46922 17.6455 4.61289 18.6278 4.61289C18.6729 4.61367 18.7165 4.61639 18.7585 4.62106C16.9156 2.92719 14.5031 1.98812 12 1.99022C10.3412 1.9895 8.70835 2.40149 7.24848 3.18906C5.78861 3.97663 4.54762 5.11505 3.63733 6.50172C3.873 6.50872 4.09467 6.51339 4.2825 6.51339C5.329 6.51339 6.9495 6.38622 6.9495 6.38622C7.4885 6.35472 7.55267 7.14689 7.01367 7.21106C7.01367 7.21106 6.47117 7.27522 5.868 7.30672L9.51267 18.1474L11.7025 11.5791L10.1438 7.30672C9.60483 7.27522 9.09383 7.21106 9.09383 7.21106C8.55483 7.17956 8.61783 6.35472 9.158 6.38622C9.158 6.38622 10.81 6.51456 11.7935 6.51456C12.84 6.51456 14.4605 6.38622 14.4605 6.38622C15.0007 6.35472 15.0637 7.14689 14.5247 7.21106C14.5247 7.21106 13.9822 7.27522 13.379 7.30672L16.9957 18.0646L17.9955 14.7291C18.4272 13.3442 18.7562 12.3502 18.7562 11.4939M12.1762 12.8741L9.17317 21.6007C11.1892 22.1953 13.3414 22.1394 15.3238 21.4409C15.2966 21.3963 15.2725 21.3499 15.2515 21.3021L12.1762 12.8741ZM20.7827 7.19706C20.827 7.51595 20.8496 7.85895 20.8503 8.22606C20.8503 9.24106 20.6602 10.3832 20.0885 11.8112L17.0318 20.6499C18.5461 19.7702 19.8027 18.5082 20.676 16.9902C21.5492 15.4722 22.0084 13.7515 22.0077 12.0002C22.0103 10.3219 21.5889 8.669 20.7827 7.19706Z" fill="white" fill-opacity="0.8"/>
</svg>
